<?xml version="1.0" encoding="utf-8"?>
<!-- Generator: Adobe Illustrator 23.0.1, SVG Export Plug-In . SVG Version: 6.00 Build 0)  -->
<svg version="1.1" id="Layer_1" xmlns="http://www.w3.org/2000/svg" xmlns:xlink="http://www.w3.org/1999/xlink" x="0px" y="0px"
	 viewBox="0 0 299.8 87.8" style="enable-background:new 0 0 299.8 87.8;" xml:space="preserve">
<style type="text/css">
	.st0{fill:#00539F;}
</style>
<g>
	<path class="st0" d="M147.1,22.7c-0.1,0.2-0.3,0.4-0.4,0.6c0.1,0,0.2,0.1,0.2,0.1C147,23.2,147.1,23,147.1,22.7z"/>
	<path class="st0" d="M241.6,60.3c-0.1-0.1-0.2-0.2-0.3-0.3c-0.1,0.1-0.2,0.2-0.3,0.3c0,0,0,0,0.1,0H241.6z"/>
	<path class="st0" d="M268.9,60.1c-0.1,0.1-0.2,0.2-0.3,0.3c0.2,0,0.4,0,0.5-0.1C269.1,60.2,269,60.2,268.9,60.1z"/>
	<polygon class="st0" points="144.6,27.5 131.8,27.5 126.1,47.4 120.4,27.5 107.6,27.5 107.6,59.5 117.1,59.5 117.1,48.6 
		116.9,43.7 116.4,39 116.5,39 122.4,59.5 129.8,59.5 135.6,39 135.7,39 135.2,44.7 135.1,49.7 135.1,59.5 144.6,59.5 	"/>
	<path class="st0" d="M163.7,59.5v-6.6h-1.5c-2.6,0-2.9-0.8-2.9-2.9v-8.4h4.4v-5.3h-4.4V29h-9.1v7.2h-3.4v5.3h3.3v9.7
		C150.1,59.3,151.6,60.2,163.7,59.5z"/>
	<rect x="167.1" y="52.4" class="st0" width="7.4" height="7.1"/>
	<path class="st0" d="M212.1,52.9c0-6.4-2.1-7.2-5.5-8.5c3.8-1,5.4-4.1,5.4-7.8c0-6.2-3.5-9.1-14.3-9.1h-15.2v32h10.6V48.3h3.2
		c4.9,0,5.6,1.4,5.6,5.6c0,2.8,0.3,4.9,0.5,5.6h10.7v-1C212,58.5,212.1,57.1,212.1,52.9z M193.1,41.3V35h4.9c2.5,0,4.3,1.1,4.3,3.3
		c0,2.2-1.7,3-5,3H193.1z"/>
	<path class="st0" d="M214.7,48.2c0,7.9,5.8,12,13.3,12c7.5,0,13.3-4,13.3-12.5c0-7.2-5.1-12.1-13.4-12.1
		C220.1,35.6,214.7,40.1,214.7,48.2z M224,47.7c0-2.6,0.9-5.8,4.1-5.8c2.4-0.1,3.9,2.4,3.9,5.8c0,4.4-1.5,6.3-4,6.3
		C225.7,54,224,52.1,224,47.7z"/>
	<path class="st0" d="M258.1,53c0,1.6-1.5,2.1-3,2.1c-0.9,0-1.7-0.3-2.3-0.7c-0.6-0.5-1-1.2-1-2.1H243c0.5,6.2,6.4,7.9,11.8,7.9
		c8.6,0,12.6-3.3,12.6-8.1c0-8.7-14.8-6.5-14.8-9.8c0-1.2,1-1.6,2.6-1.6c0.7,0,1.4,0.2,1.9,0.6c0.5,0.4,0.8,0.9,0.9,1.7h8.4
		c-0.5-6.2-6.5-7.3-11.6-7.3c-4.9,0-11.1,1.7-11.1,7.7C243.7,52.3,258.1,49.3,258.1,53z"/>
	<path class="st0" d="M282,60.2c5.5,0,11.4-1.9,13-7.7h-8.9c-0.7,1.4-2,2-3.5,2c-2.5,0-4.6-1.8-4.6-4.6h17.8
		c0.1-8.4-5.1-14.4-13.8-14.4c-7.5,0-13.3,4.9-13.3,12.5C268.7,55.9,274.5,60.2,282,60.2z M278,45.3c0-2.5,1.6-4,4.3-4
		c2.2,0,4.1,1.9,4.1,4H278z"/>
	<path class="st0" d="M234.2,71.5c0-1.9-2.1-2.3-3.6-2.7c-0.8-0.2-1.7-0.3-1.7-1.3c0-0.8,0.8-1.2,1.5-1.2c1,0,1.5,0.5,1.6,1.4h2
		c0-1.9-1.4-2.9-3.3-2.9c-1.9,0-3.9,1-3.9,3.1c0,1.7,1.8,2.3,3.1,2.6c0.8,0.2,2.2,0.3,2.2,1.4c0,1-1.1,1.3-1.9,1.3
		c-1.1,0-1.7-0.7-1.6-1.8h-2.1c-0.1,2.4,1.5,3.2,3.6,3.2C232.2,74.6,234.2,73.8,234.2,71.5z"/>
	<polygon class="st0" points="241.3,74.4 243.8,74.4 240.1,69.2 243.5,65 241.1,65 238,69.1 238,69.1 238,65 236,65 236,74.4 
		238,74.4 238,69.6 238,69.6 	"/>
	<rect x="245" y="65" class="st0" width="1.8" height="9.4"/>
	<polygon class="st0" points="254.7,74.4 256.7,74.4 256.7,66.6 259.5,66.6 259.5,65 251.9,65 251.9,66.6 254.7,66.6 	"/>
	<path class="st0" d="M262.3,65l-3.4,9.4h1.9l0.7-2h3.7l0.7,2h2l-3.3-9.4H262.3z M262,70.9l1.4-4h0l1.3,4H262z"/>
	<polygon class="st0" points="277,74.4 277,65 275,65 275,68.7 271.4,68.7 271.4,65 269.4,65 269.4,74.4 271.4,74.4 271.4,70.3 
		275,70.3 275,74.4 	"/>
	<path class="st0" d="M287.9,69.7c0-2.8-1.4-4.9-4.6-4.9c-3.1,0-4.6,2.1-4.6,4.9c0,2.8,1.4,4.9,4.6,4.9
		C286.5,74.6,287.9,72.5,287.9,69.7z M281,69.7c0-1.6,0.4-3.5,2.4-3.5c2,0,2.4,1.8,2.4,3.5c0,1.6-0.4,3.5-2.4,3.5
		C281.4,73.2,281,71.3,281,69.7z"/>
	<polygon class="st0" points="291.6,72.9 291.6,70.3 295.6,70.3 295.6,68.8 291.6,68.8 291.6,66.6 295.9,66.6 295.9,65 289.6,65 
		289.6,74.4 296,74.4 296,72.9 	"/>
</g>
<g>
	<g>
		<path class="st0" d="M100.2,68.2c-0.6-3.4-1.3-6.7-2.2-9.8l-2.5,8.2h-2.7c0,0.3,0,0.7,0,1.1c0,1.8-0.1,3.4-0.3,4.9
			C97.5,70.1,100.2,68.2,100.2,68.2z"/>
		<path class="st0" d="M17.7,50.5c1.2-2.6,2.5-5.2,3.9-7.6c3.8-6.4,8.6-12.3,14.3-17.5c6.4-5.8,12.4-9.3,16-11.2
			c3.5,1.8,9.6,5.4,16,11.2c5.7,5.2,10.5,11,14.3,17.5c1.5,2.6,2.9,5.2,4,8c0.3,0.2,0.7,0.4,1,0.7l0.1-2.3h7.6
			c-13.5-33.1-43-44.6-43-44.6S11.4,20.3,3.6,68.2c0,0,2.7,1.9,7.5,4.2c0.2-2.4,1.1-4.5,2.5-6.2c-1.1-1.6-1.7-3.6-1.7-5.8
			C11.9,55.9,14.1,52.4,17.7,50.5z"/>
		<path class="st0" d="M68.9,31.5c-1.8-1.7-4-2.2-5.7-3.8c-1.1-0.3,0.4-0.6,0.2-1L62.5,26c-0.9-0.6-2.9-1.6-4.2-1.8
			c-0.7-0.2-1.4-0.1-2,0.2c-0.6,0.3-1,0.7-1.4,0c-0.4-0.8-1.1-1.3-1.8-1.9c-0.3-0.2-0.5-0.4-0.8-0.6c-0.5-0.2-1-0.2-1.6-0.2
			c-4.2,0.3-8.4,2-11.6,4.8c-0.4,0.3-0.7,0.6-1,1c-0.4,0.4-0.8,0.9-0.9,1.4c1-0.2,1.9-0.5,2.8-0.9c0.2-0.1,0.5-0.2,0.7-0.1
			c0.2,0.1,0.3,0.3,0.3,0.5c0,0.1-0.1,0.3-0.1,0.4c-0.6,1.2-1.2,2.3-1.9,3.4c-0.3,1-1.2,1.5-1.3,2.6c0.5,0.6,1.4-0.1,1.8-0.2
			c0.1,0,0.4-0.4,0.5-0.6c0.2-0.2,0.4-0.3,0.5-0.4c0.4-0.4,0.8-0.7,1.3-1.1c0.9-0.7,1.8-1.4,2.7-2c1.3-0.9,2.8-1.8,4.4-1.9
			c0.6,0,1.2,0,1.7,0.1c3.6,0.6,6.8,2.4,9.7,4.6c0.2,0.1,0.3,0.3,0.5,0.3c0.5,0.2,1.7,0.1,1.9-0.5c-1.7-1.9-3.5-3.9-5.4-5.5
			c-0.1-0.1-0.2-0.2-0.3-0.3c-0.1-0.2-0.1-0.4,0-0.6c0.5-0.8,2.7,0,3.3,0.3c0.9,0.4,1.6,1.2,2.5,1.5c1.1,0.4,2.4,1.4,3.6,2.2
			c0.8,0.3,1.7,0.8,2.6,1L68.9,31.5z"/>
	</g>
	<g>
		<path class="st0" d="M97.1,52H90l-0.5,9.1c-1.3-6.3-4.8-9.4-10-9.4c-6.4,0-10.3,4.8-10.6,14.4c-1.4-2-3.6-3-6.4-3
			c-2.5,0-4.1,0.7-5.5,1.7c1.6-3.6,4.8-6.4,10.6-7.8l-1.8-5.6c-6.9,1.2-11.3,4.8-13.7,9.8c0.1-0.5,0.1-1,0.1-1.6c0-4.8-3.2-8-9.1-8
			c-4.5,0-7.2,1.8-9.7,5c-1.3-3.1-4.5-5-9-5c-5.9,0-9.8,3.5-9.8,8.6c0,2.9,1.4,4.9,3,6c-1.8,1.1-3.8,3.2-3.8,7.2
			c0,6.3,4.1,9.8,10.5,9.8c3.9,0,6.9-1.2,8.7-3.6c-0.1,1-0.2,2-0.2,3.1h4h1.7h10.1h3.7v-2.8c1.8,2.2,4.4,3.3,7.6,3.3
			c5.2,0,8.9-2.4,10.1-6.9c1.7,4.6,4.9,6.9,9.3,6.9c6.7,0,10.7-5.3,10.7-15.9c0-1.4-0.1-2.6-0.2-3.8h3.6L97.1,52z M24.4,57.3
			c2,0,2.9,1.1,2.9,3.3c0,1.8-0.8,3.2-2.9,3.2c-2.1,0-2.9-1.4-2.9-3.2C21.5,58.4,22.3,57.3,24.4,57.3z M24.4,77.6
			c-2.4,0-3.6-1.2-3.6-4.2c0-2.8,1.2-4.2,3.5-4.2c2.4,0,3.7,1.3,3.7,4.2C28,76.4,26.8,77.6,24.4,77.6z M34.9,72.8
			c-0.2-3.5-2-5.5-3.8-6.5c1.7-1.2,3-3,3-5.9c0-0.8-0.1-1.5-0.3-2.2l3.8,3.2c2.3-2.8,3.5-3.4,5.3-3.4c1.3,0,2.2,1.1,2.2,2.5
			c0,1.7-0.8,2.8-3.3,4.6C38.8,67.3,36.5,69.6,34.9,72.8z M50.7,76.8H40.5c0.4-2.5,1.8-4.5,6.4-7.9c1.8-1.3,3.1-2.6,3.9-3.8
			c-0.6,2.1-0.8,4.4-0.8,6.7C50,73.7,50.2,75.4,50.7,76.8z M60.2,77.6c-2.3,0-3.3-1.3-3.3-4.2c0-3.2,1.1-4.5,3.4-4.5
			c2.1,0,3.3,1.4,3.3,4.5C63.6,76.4,62.3,77.6,60.2,77.6z M79.5,77.1c-2.2,0-3.3-2.1-3.3-9.6c0-7.5,1.1-9.5,3.2-9.5
			c2.2,0,3.3,2.1,3.3,9.6S81.7,77.1,79.5,77.1z"/>
	</g>
</g>
<g>
	<path class="st0" d="M32.6,40.7c0.2,0.3,0.3,0.7,0.3,1.1c0,0.4-0.1,0.8-0.3,1.1c-0.1,0.1-0.3,0.3-0.5,0.4c0.4,0.1,0.6,0.3,0.8,0.6
		c0.2,0.3,0.3,0.6,0.3,1c0,0.4-0.1,0.8-0.3,1.1c-0.1,0.2-0.3,0.4-0.5,0.6c-0.2,0.2-0.5,0.3-0.8,0.4c-0.3,0.1-0.6,0.1-1,0.1h-3.2
		v-7.1h3.5C31.6,39.9,32.2,40.2,32.6,40.7z M28.7,41.2v1.6h1.7c0.3,0,0.6-0.1,0.8-0.2c0.2-0.1,0.3-0.3,0.3-0.6
		c0-0.3-0.1-0.6-0.4-0.7c-0.2-0.1-0.5-0.1-0.8-0.1H28.7z M28.7,43.9v1.9h1.7c0.3,0,0.6,0,0.7-0.1c0.3-0.2,0.5-0.5,0.5-0.9
		c0-0.4-0.2-0.6-0.5-0.8c-0.2-0.1-0.4-0.1-0.7-0.1H28.7z"/>
	<path class="st0" d="M36.4,39.9h1.7l2.5,7.1H39l-0.5-1.5h-2.6l-0.5,1.5h-1.6L36.4,39.9z M36.3,44.4h1.8l-0.9-2.8L36.3,44.4z"/>
	<path class="st0" d="M42.6,44.9c0,0.3,0.1,0.6,0.3,0.7c0.2,0.3,0.7,0.4,1.3,0.4c0.4,0,0.7,0,0.9-0.1c0.4-0.1,0.6-0.4,0.6-0.8
		c0-0.2-0.1-0.4-0.3-0.5c-0.2-0.1-0.5-0.2-1-0.3L43.6,44c-0.8-0.2-1.3-0.4-1.6-0.5c-0.5-0.3-0.7-0.8-0.7-1.5c0-0.6,0.2-1.2,0.7-1.6
		c0.5-0.4,1.2-0.6,2.1-0.6c0.8,0,1.4,0.2,2,0.6c0.5,0.4,0.8,1,0.8,1.7h-1.4c0-0.4-0.2-0.7-0.6-0.9C44.7,41,44.4,41,44,41
		c-0.4,0-0.7,0.1-0.9,0.2c-0.2,0.2-0.4,0.4-0.4,0.6c0,0.3,0.1,0.4,0.3,0.6c0.1,0.1,0.5,0.2,0.9,0.3l1.3,0.3c0.6,0.1,1,0.3,1.2,0.5
		c0.4,0.3,0.6,0.8,0.6,1.5c0,0.7-0.3,1.2-0.8,1.6c-0.5,0.4-1.2,0.6-2.1,0.6c-0.9,0-1.7-0.2-2.2-0.6s-0.8-1-0.8-1.8H42.6z"/>
	<path class="st0" d="M53.5,41.2h-3.8v1.5h3.5V44h-3.5v1.8h4v1.3h-5.4v-7.1h5.2V41.2z"/>
	<path class="st0" d="M62.9,41.2h-3.8v1.5h3.5V44h-3.5v1.8h4v1.3h-5.4v-7.1h5.2V41.2z"/>
	<path class="st0" d="M64.2,39.9h1.5v5.9h3.6v1.3h-5.1V39.9z"/>
	<path class="st0" d="M73.7,39.9h1.6l-2.4,7.1h-1.4L69,39.9h1.6l1.6,5.4L73.7,39.9z"/>
	<path class="st0" d="M75.1,45.6h1.5v1.4h-1.5V45.6z"/>
</g>
</svg>
